<?xml version="1.0" encoding="UTF-8"?>
<svg id="_1" data-name="1" xmlns="http://www.w3.org/2000/svg" viewBox="0 0 16.06 16.06">
  <defs>
    <style>
      .cls-1 {
        fill: #fff;
      }

      .cls-1, .cls-2 {
        stroke-width: 0px;
      }

      .cls-2 {
        fill: #e5b21d;
      }
    </style>
  </defs>
  <circle class="cls-2" cx="8.03" cy="8.03" r="8.03"/>
  <path class="cls-1" d="M12.88,9.02v3.4h-1.97v-3.17c0-.8-.28-1.34-1-1.34-.54,0-.87.37-1.01.72-.05.13-.07.3-.07.48v3.31h-1.97s.03-5.37,0-5.93h1.97v.84s0,.01-.01.02h.01v-.02c.26-.4.73-.98,1.78-.98,1.3,0,2.27.85,2.27,2.67h0ZM3.8,12.42h1.97v-5.93h-1.97v5.93ZM3.8,12.42,5.83,4.49c0,.56-.45,1.01-1.01,1.01s-1.01-.45-1.01-1.01.45-1.01,1.01-1.01,1.01.45,1.01,1.01Z"/>
</svg>