<?xml version="1.0" encoding="UTF-8"?>
<svg id="_1" data-name="1" xmlns="http://www.w3.org/2000/svg" viewBox="0 0 89 31">
  <defs>
    <style>
      .cls-1 {
        fill: #db5948;
      }

      .cls-1, .cls-2, .cls-3 {
        stroke-width: 0px;
      }

      .cls-4 {
        stroke: #fff;
        stroke-miterlimit: 10;
        stroke-width: .03px;
      }

      .cls-4, .cls-2 {
        fill: #fff;
      }

      .cls-3 {
        fill: #e5b21d;
      }
    </style>
  </defs>
  <path class="cls-2" d="M72.89,18.42c-.12,1.81.43,3.36,1.77,4.61,2.15,2,5.48,1.94,7.55-.13.67-.67,1.36-1.31,2.03-1.97.15-.15.24-.2.42-.02,1.3,1.33,2.6,2.66,3.91,3.98.1.1.2.17.04.32-1.12,1.06-2.11,2.26-3.37,3.17-7.13,5.15-17.01.95-18.32-7.55-.13-.83-.14-1.66-.14-2.49,0-3.5,0-7,0-10.5,0-.38.1-.47.47-.47,1.74.02,3.47.02,5.21,0,.38,0,.47.11.44.46-.03.3,0,.6,0,.9-.07.11-.05.24-.05.36,0,2.99,0,5.98,0,8.96,0,.12.03.24.04.36Z"/>
  <path class="cls-1" d="M72.89,18.42c-.01-.12-.04-.24-.04-.36,0-2.99,0-5.98,0-8.96,0-.12-.02-.25.05-.36,4.04-1.95,7.99-1.81,11.82.55,1.09.67,1.96,1.61,2.85,2.51.32.32.63.64.96.95.14.13.2.22.03.39-1.31,1.32-2.62,2.64-3.91,3.97-.18.18-.27.12-.42-.02-.63-.62-1.28-1.24-1.91-1.86-1.61-1.57-3.51-2.11-5.64-1.41-2.14.7-3.4,2.24-3.76,4.48,0,.04-.02.08-.03.12Z"/>
  <path class="cls-3" d="M69.88.37c1.64.02,3.02,1.38,3,3.09-.02,1.69-1.42,3.03-3.09,3.01-1.68-.03-3.04-1.43-3.01-3.1.03-1.68,1.42-3.03,3.1-3Z"/>
  <g>
    <path class="cls-1" d="M.72,7.99v7.47h-.4v-7.47h.4Z"/>
    <path class="cls-1" d="M3.95,12.11v3.37s-.39,0-.39,0v-5.29h.4v1.08s.27-.37.53-.58c.41-.33.91-.52,1.42-.52.82,0,1.56.46,2,1.21.2.34.33.73.36,1.14,0,.18.02.59-.01,2.95h-.38v-3.09c-.1-.96-1.06-1.83-1.97-1.83s-1.7.65-1.97,1.56Z"/>
    <path class="cls-1" d="M11.47,12.11v3.37s-.39,0-.39,0v-5.29h.4v1.08s.27-.37.53-.58c.41-.33.91-.52,1.42-.52.82,0,1.56.46,2,1.21.2.34.33.73.36,1.14,0,.18.02.59-.01,2.95h-.38v-3.09c-.1-.96-1.06-1.83-1.97-1.83s-1.7.65-1.97,1.56Z"/>
    <path class="cls-1" d="M23.83,12.79c0,1.49-1.18,2.7-2.61,2.7s-2.62-1.21-2.62-2.7,1.18-2.7,2.62-2.7,2.61,1.21,2.61,2.7ZM23.44,12.79c0-1.25-1-2.27-2.22-2.27s-2.23,1.02-2.23,2.27,1,2.27,2.23,2.27,2.22-1.02,2.22-2.27Z"/>
    <path class="cls-1" d="M30.08,10.12h.46l-2.31,5.35-2.31-5.35h.44l1.87,4.26,1.88-4.26h-.03Z"/>
    <path class="cls-1" d="M37.33,15.48v-1.04l-.55.46c-.46.38-1.02.58-1.61.58-1.41,0-2.56-1.19-2.56-2.65s1.15-2.65,2.56-2.65c.6,0,1.16.2,1.61.58l.55.46v-1.05h.46v5.3h-.46ZM37.27,12.59v-.04c-.15-1.12-1.02-1.89-2.11-1.89-1.2,0-2.11.95-2.11,2.18s.91,2.17,2.11,2.17c1.09,0,1.97-.78,2.11-1.88v-.53Z"/>
    <path class="cls-1" d="M43.64,11.01h-1.32v4.48h-.42v-4.48h-1.33v-.44h1.33v-2.56h.41v2.56h1.33v.44Z"/>
    <path class="cls-1" d="M46.43,8.3c0-.14.12-.24.24-.24.14,0,.24.11.24.24,0,.13-.11.23-.24.23-.13,0-.24-.11-.24-.23ZM46.85,10.17v5.33h-.42v-5.33h.42Z"/>
    <path class="cls-1" d="M54.92,12.79c0,1.49-1.18,2.7-2.61,2.7s-2.62-1.21-2.62-2.7,1.18-2.7,2.62-2.7,2.61,1.21,2.61,2.7ZM54.52,12.79c0-1.25-1-2.27-2.22-2.27s-2.23,1.02-2.23,2.27,1,2.27,2.23,2.27,2.22-1.02,2.22-2.27Z"/>
    <path class="cls-1" d="M58.15,12.11v3.37s-.39,0-.39,0v-5.29h.4v1.08s.27-.37.53-.58c.41-.33.91-.52,1.42-.52.82,0,1.56.46,2,1.21.2.34.33.73.36,1.14,0,.18.02.59-.01,2.95h-.38v-3.09c-.1-.96-1.06-1.83-1.97-1.83s-1.7.65-1.97,1.56Z"/>
  </g>
  <g>
    <path class="cls-3" d="M27.04,17.31l-.22.41c-.5-.32-1.08-.47-1.69-.47-1.77,0-3.27,1.49-3.27,3.26s1.5,3.26,3.27,3.26c.61,0,1.2-.17,1.71-.49l.21.42c-.58.35-1.24.53-1.92.53-2.05,0-3.73-1.67-3.73-3.73s1.68-3.74,3.73-3.74c.68,0,1.34.19,1.91.53Z"/>
    <path class="cls-3" d="M34.44,21.52c0,1.49-1.18,2.7-2.61,2.7s-2.62-1.21-2.62-2.7,1.18-2.7,2.62-2.7,2.61,1.21,2.61,2.7ZM34.05,21.52c0-1.25-1-2.27-2.22-2.27s-2.23,1.02-2.23,2.27,1,2.27,2.23,2.27,2.22-1.02,2.22-2.27Z"/>
    <path class="cls-3" d="M37.67,20.84v3.37s-.39,0-.39,0v-5.29h.4v1.08s.27-.37.53-.58c.41-.33.91-.52,1.42-.52.82,0,1.56.46,2,1.21.2.34.33.73.36,1.14,0,.18.02.59-.01,2.95h-.38v-3.09c-.1-.96-1.06-1.83-1.97-1.83s-1.7.65-1.97,1.56Z"/>
    <path class="cls-3" d="M44.79,23.54l.18-.31c.38.35.81.58,1.55.59.69-.01,1.16-.47,1.16-1.14,0-.88-.84-1.07-1.18-1.09-.73-.04-1.73-.33-1.73-1.35,0-.76.63-1.41,1.49-1.41.48,0,.98.2,1.26.49l-.2.36c-.31-.3-.64-.44-1.05-.46-.55,0-1.1.37-1.1,1.02,0,.7.61.95,1.2.98.8.04,1.71.53,1.71,1.47,0,.85-.69,1.51-1.55,1.51-.71,0-1.4-.25-1.73-.66Z"/>
    <path class="cls-3" d="M55.94,21.72h-4.82c.19,1.4,1.24,2.08,2.22,2.08.39,0,.81-.14,1.15-.33h.64c-.48.47-1.12.73-1.78.73-1.43,0-2.6-1.2-2.6-2.69s1.17-2.69,2.6-2.69,2.57,1.26,2.6,2.89ZM55.52,21.31c-.28-1.39-1.2-2.09-2.18-2.09s-2,.62-2.21,2.09h4.39Z"/>
    <path class="cls-3" d="M58.75,17.03c0-.14.12-.24.24-.24.14,0,.24.11.24.24,0,.13-.11.23-.24.23-.13,0-.24-.11-.24-.23ZM59.17,18.9v5.33h-.42v-5.33h.42Z"/>
    <path class="cls-3" d="M62.48,16.21v7.99h-.46v-7.99h.46Z"/>
  </g>
  <g>
    <path class="cls-4" d="M28.56,28.18l-.58-1.37h.09l.5,1.17.5-1.17h.08l-.58,1.37Z"/>
    <path class="cls-4" d="M30.37,27.69c0,.27-.22.5-.48.5s-.48-.22-.48-.5.22-.5.48-.5.48.22.48.5ZM30.3,27.69c0-.23-.18-.42-.41-.42s-.41.19-.41.42.18.42.41.42.41-.19.41-.42Z"/>
    <path class="cls-4" d="M31.36,27.36h-.24v.83h-.08v-.83h-.25v-.08h.25v-.47h.08v.47h.25v.08Z"/>
    <path class="cls-4" d="M32.29,27.27c-.18.02-.31.17-.35.35v.57h-.07v-.99h.07v.23s.04-.07.1-.13c.07-.06.15-.09.25-.1v.07Z"/>
    <path class="cls-4" d="M33.63,27.72h-.89c.04.26.23.38.41.38.07,0,.15-.03.21-.06h.12c-.09.09-.21.14-.33.14-.26,0-.48-.22-.48-.5s.22-.5.48-.5.48.23.48.53ZM33.55,27.65c-.05-.26-.22-.39-.4-.39s-.37.11-.41.39h.81Z"/>
    <path class="cls-4" d="M35.34,28.06l-.1-.08v.71h-.08v-1.48h.08v.19l.1-.08c.08-.07.18-.11.29-.11.25,0,.46.21.46.48s-.21.48-.46.48c-.11,0-.21-.04-.29-.11ZM35.25,27.64v.1c.03.2.19.33.38.33.22,0,.38-.16.38-.38s-.16-.39-.38-.39c-.2,0-.36.14-.38.34Z"/>
    <path class="cls-4" d="M37.5,28.18v-.19l-.1.08c-.08.07-.19.11-.3.11-.26,0-.47-.22-.47-.49s.21-.49.47-.49c.11,0,.21.04.3.11l.1.08v-.19h.08v.98h-.08ZM37.49,27.65h0c-.03-.21-.19-.36-.39-.36-.22,0-.39.17-.39.4s.17.4.39.4c.2,0,.36-.14.39-.35v-.1Z"/>
    <path class="cls-4" d="M38.51,27.27c-.18.02-.31.17-.35.35v.57h-.07v-.99h.07v.23s.04-.07.1-.13c.07-.06.15-.09.25-.1v.07Z"/>
    <path class="cls-4" d="M39.55,27.36h-.24v.83h-.08v-.83h-.25v-.08h.25v-.47h.08v.47h.25v.08Z"/>
    <path class="cls-4" d="M40.94,27.72h-.89c.04.26.23.38.41.38.07,0,.15-.03.21-.06h.12c-.09.09-.21.14-.33.14-.26,0-.48-.22-.48-.5s.22-.5.48-.5.48.23.48.53ZM40.86,27.65c-.05-.26-.22-.39-.4-.39s-.37.11-.41.39h.81Z"/>
    <path class="cls-4" d="M41.53,27.56v.62s-.07,0-.07,0v-.98h.07v.2s.05-.07.1-.11c.08-.06.17-.1.26-.1.15,0,.29.08.37.22.04.06.06.14.07.21,0,.03,0,.11,0,.55h-.07v-.57c-.02-.18-.2-.34-.36-.34s-.31.12-.36.29Z"/>
    <path class="cls-4" d="M43.72,28.18v-.19l-.1.08c-.08.07-.19.11-.3.11-.26,0-.47-.22-.47-.49s.21-.49.47-.49c.11,0,.21.04.3.11l.1.08v-.19h.08v.98h-.08ZM43.71,27.65h0c-.03-.21-.19-.36-.39-.36-.22,0-.39.17-.39.4s.17.4.39.4c.2,0,.36-.14.39-.35v-.1Z"/>
    <path class="cls-4" d="M44.32,26.86s.02-.05.05-.05c.03,0,.05.02.05.05,0,.02-.02.04-.05.04-.02,0-.05-.02-.05-.04ZM44.39,27.2v.99h-.08v-.99h.08Z"/>
    <path class="cls-4" d="M45.33,27.27c-.18.02-.31.17-.35.35v.57h-.07v-.99h.07v.23s.04-.07.1-.13c.07-.06.15-.09.25-.1v.07Z"/>
    <path class="cls-4" d="M46.66,27.72h-.89c.04.26.23.38.41.38.07,0,.15-.03.21-.06h.12c-.09.09-.21.14-.33.14-.26,0-.48-.22-.48-.5s.22-.5.48-.5.48.23.48.53ZM46.58,27.65c-.05-.26-.22-.39-.4-.39s-.37.11-.41.39h.81Z"/>
    <path class="cls-4" d="M49.03,28.18v-.19l-.1.08c-.08.07-.19.11-.3.11-.26,0-.47-.22-.47-.49s.21-.49.47-.49c.11,0,.21.04.3.11l.1.08v-.19h.08v.98h-.08ZM49.02,27.65h0c-.03-.21-.19-.36-.39-.36-.22,0-.39.17-.39.4s.17.4.39.4c.2,0,.36-.14.39-.35v-.1Z"/>
    <path class="cls-4" d="M49.63,27.72s0-.05,0-.52h.07v.53c.02.21.21.37.39.37s.35-.13.39-.34v-.57h.07v.98h-.07v-.21s-.05.07-.11.11c-.08.06-.18.1-.28.1-.16,0-.31-.09-.39-.24-.04-.07-.06-.15-.07-.23Z"/>
    <path class="cls-4" d="M52.11,27.69c0-.26.21-.47.46-.47.11,0,.21.04.29.11l.1.08v-.19h.08v1.48h-.08v-.71l-.1.08c-.08.07-.18.11-.29.11-.25,0-.46-.21-.46-.48ZM52.19,27.69c0,.22.16.38.38.38.2,0,.36-.13.38-.33v-.1c-.03-.2-.19-.34-.38-.34-.22,0-.38.17-.38.39Z"/>
    <path class="cls-4" d="M53.55,27.72s0-.05,0-.52h.07v.53c.02.21.21.37.39.37s.35-.13.39-.34v-.57h.07v.98h-.07v-.21s-.05.07-.11.11c-.08.06-.18.1-.28.1-.16,0-.31-.09-.39-.24-.04-.07-.06-.15-.07-.23Z"/>
    <path class="cls-4" d="M55.96,27.69c0,.27-.22.5-.48.5s-.48-.22-.48-.5.22-.5.48-.5.48.22.48.5ZM55.89,27.69c0-.23-.18-.42-.41-.42s-.41.19-.41.42.18.42.41.42.41-.19.41-.42Z"/>
    <path class="cls-4" d="M56.95,27.36h-.24v.83h-.08v-.83h-.25v-.08h.25v-.47h.08v.47h.25v.08Z"/>
    <path class="cls-4" d="M57.47,26.86s.02-.05.05-.05c.03,0,.05.02.05.05,0,.02-.02.04-.05.04-.02,0-.05-.02-.05-.04ZM57.55,27.2v.99h-.08v-.99h.08Z"/>
    <path class="cls-4" d="M58.82,27.34l.1.08v-.71h.08v1.48h-.08v-.19l-.1.08c-.08.07-.18.11-.29.11-.25,0-.46-.21-.46-.48s.21-.48.46-.48c.11,0,.21.04.29.11ZM58.91,27.76v-.1c-.03-.2-.19-.33-.38-.33-.22,0-.38.16-.38.38s.16.39.38.39c.2,0,.36-.14.38-.34Z"/>
    <path class="cls-4" d="M59.52,26.86s.02-.05.05-.05c.03,0,.05.02.05.05,0,.02-.02.04-.05.04-.02,0-.05-.02-.05-.04ZM59.6,27.2v.99h-.08v-.99h.08Z"/>
    <path class="cls-4" d="M61.08,27.72h-.89c.04.26.23.38.41.38.07,0,.15-.03.21-.06h.12c-.09.09-.21.14-.33.14-.26,0-.48-.22-.48-.5s.22-.5.48-.5.48.23.48.53ZM61,27.65c-.05-.26-.22-.39-.4-.39s-.37.11-.41.39h.81Z"/>
    <path class="cls-4" d="M61.68,27.56v.62s-.07,0-.07,0v-.98h.07v.2s.05-.07.1-.11c.08-.06.17-.1.26-.1.15,0,.29.08.37.22.04.06.06.14.07.21,0,.03,0,.11,0,.55h-.07v-.57c-.02-.18-.2-.34-.36-.34s-.31.12-.36.29Z"/>
  </g>
</svg>