<?xml version="1.0" encoding="UTF-8"?>
<svg id="_x31_" xmlns="http://www.w3.org/2000/svg" version="1.1" xmlns:xlink="http://www.w3.org/1999/xlink" viewBox="0 0 185.4 200">
  <!-- Generator: Adobe Illustrator 29.1.0, SVG Export Plug-In . SVG Version: 2.1.0 Build 142)  -->
  <defs>
    <style>
      .st0 {
        fill: #fff;
      }

      .st1 {
        fill: #db5948;
      }

      .st2 {
        filter: url(#drop-shadow-1);
      }

      .st3 {
        fill: #e5b21d;
      }
    </style>
    <filter id="drop-shadow-1" x="-27" y="-26.4" width="216" height="288" filterUnits="userSpaceOnUse">
      <feOffset dx="6.5" dy="6.5"/>
      <feGaussianBlur result="blur" stdDeviation="4.7"/>
      <feFlood flood-color="#000" flood-opacity=".3"/>
      <feComposite in2="blur" operator="in"/>
      <feComposite in="SourceGraphic"/>
    </filter>
  </defs>
  <g class="st2">
    <g>
      <path class="st1" d="M32.9,136.1c-.1-1-.3-2.1-.3-3.1,0-25.6,0-51.2,0-76.8,0-1-.1-2.1.4-3.1,34.6-16.7,68.4-15.5,101.3,4.7,9.4,5.8,16.8,13.8,24.5,21.5,2.7,2.8,5.4,5.5,8.2,8.2,1.2,1.1,1.7,1.9.2,3.3-11.2,11.3-22.4,22.6-33.5,34-1.5,1.6-2.3,1-3.6-.2-5.4-5.3-10.9-10.6-16.4-15.9-13.8-13.5-30.1-18.1-48.4-12.1-18.3,6-29.1,19.2-32.3,38.4,0,.3-.1.7-.2,1Z"/>
      <path class="st0" d="M32.9,136.1c-1,15.5,3.7,28.8,15.2,39.5,18.4,17.1,47,16.6,64.7-1.1,5.7-5.7,11.6-11.2,17.4-16.9,1.3-1.3,2-1.7,3.6-.2,11.1,11.4,22.3,22.7,33.5,34.1.8.9,1.7,1.5.4,2.8-9.6,9.1-18.1,19.4-28.9,27.2-61.1,44.1-145.7,8.2-157-64.6-1.1-7.1-1.2-14.2-1.2-21.4,0-30,0-60,0-89.9,0-3.2.8-4.1,4.1-4,14.9.2,29.7.2,44.6,0,3.3,0,4,.9,3.8,3.9-.2,2.5,0,5.1,0,7.7-.6,1-.4,2-.4,3.1,0,25.6,0,51.2,0,76.8,0,1,.2,2.1.3,3.1Z"/>
    </g>
    <path class="st3" d="M7.1-18.6c14.1.2,25.9,11.8,25.7,26.4-.2,14.5-12.1,26-26.5,25.8-14.4-.2-26-12.2-25.8-26.5.2-14.4,12.2-26,26.6-25.7Z"/>
  </g>
</svg>