<?xml version="1.0" encoding="UTF-8"?>
<svg id="_1" data-name="1" xmlns="http://www.w3.org/2000/svg" viewBox="0 0 16.06 16.06">
  <defs>
    <style>
      .cls-1 {
        fill: #fff;
      }

      .cls-1, .cls-2 {
        stroke-width: 0px;
      }

      .cls-2 {
        fill: #e5b21d;
      }
    </style>
  </defs>
  <circle class="cls-2" cx="8.03" cy="8.03" r="8.03"/>
  <path class="cls-1" d="M13.14,9.73c.19-.56.3-1.16.3-1.78s-.11-1.22-.3-1.78c0-.02-.01-.03-.02-.05-.75-2.08-2.75-3.58-5.09-3.58s-4.34,1.49-5.09,3.58c0,.02-.01.03-.02.05-.19.56-.3,1.16-.3,1.78s.11,1.22.3,1.78c0,.02.01.03.02.05.75,2.08,2.75,3.58,5.09,3.58s4.34-1.49,5.09-3.58c0-.02.01-.03.02-.05h0ZM8.03,12.58c-.21,0-.54-.37-.82-1.21-.13-.4-.24-.86-.32-1.37h2.27c-.08.5-.19.96-.32,1.37-.28.83-.61,1.21-.82,1.21h0ZM6.8,9.23c-.04-.41-.06-.84-.06-1.29s.02-.87.06-1.29h2.46c.04.41.06.84.06,1.29s-.02.87-.06,1.29h-2.46ZM3.4,7.95c0-.45.06-.88.18-1.29h2.44c-.04.42-.05.85-.05,1.29s.02.86.05,1.29h-2.44c-.12-.41-.18-.84-.18-1.29h0ZM8.03,3.32c.21,0,.54.37.82,1.21.13.4.24.86.32,1.37h-2.27c.08-.5.19-.96.32-1.37.28-.83.61-1.21.82-1.21h0ZM10.04,6.66h2.44c.12.41.18.84.18,1.29s-.06.88-.18,1.29h-2.44c.04-.42.05-.85.05-1.29s-.02-.86-.05-1.29h0ZM12.18,5.89h-2.23c-.14-.95-.37-1.8-.71-2.41,1.29.35,2.35,1.24,2.94,2.41h0ZM6.82,3.48c-.33.61-.57,1.46-.71,2.41h-2.23c.58-1.17,1.65-2.06,2.94-2.41h0ZM3.88,10.01h2.23c.14.95.37,1.8.71,2.41-1.29-.35-2.35-1.24-2.94-2.41h0ZM9.24,12.42c.33-.61.57-1.46.71-2.41h2.23c-.58,1.17-1.65,2.06-2.94,2.41h0ZM9.24,12.42"/>
</svg>