<?xml version="1.0" encoding="UTF-8"?>
<svg id="_1" data-name="1" xmlns="http://www.w3.org/2000/svg" viewBox="0 0 16.06 16.06">
  <defs>
    <style>
      .cls-1 {
        fill: #fff;
        fill-rule: evenodd;
      }

      .cls-1, .cls-2 {
        stroke-width: 0px;
      }

      .cls-2 {
        fill: #e5b21d;
      }
    </style>
  </defs>
  <circle class="cls-2" cx="8.03" cy="8.03" r="8.03"/>
  <path class="cls-1" d="M10.77,9.03c-.13-.07-.8-.43-.92-.48-.12-.05-.22-.08-.31.06-.1.13-.37.43-.45.52-.08.09-.16.1-.3.02-.13-.07-.57-.24-1.08-.72-.39-.38-.65-.84-.73-.98-.08-.14,0-.21.07-.28.06-.06.14-.16.22-.23.07-.08.1-.13.15-.22.05-.09.03-.17,0-.24-.03-.07-.28-.76-.39-1.04-.1-.28-.22-.24-.3-.24-.08,0-.17-.02-.26-.02-.09,0-.24.03-.37.16-.13.13-.5.45-.52,1.13-.03.68.44,1.35.51,1.44.07.09.89,1.56,2.27,2.16,1.38.6,1.38.42,1.64.41.25-.01.83-.3.95-.62.13-.32.14-.59.1-.65-.03-.06-.12-.1-.26-.17h0ZM8.25,12.29c-.91,0-1.76-.27-2.46-.74l-1.72.55.56-1.66c-.54-.74-.85-1.65-.85-2.63,0-2.47,2.01-4.48,4.48-4.48s4.48,2.01,4.48,4.48-2.01,4.48-4.48,4.48h0ZM8.25,2.42c-2.97,0-5.38,2.41-5.38,5.38,0,1.02.28,1.97.77,2.78l-.97,2.89,2.98-.95c.77.43,1.66.67,2.6.67,2.97,0,5.38-2.41,5.38-5.38s-2.41-5.38-5.38-5.38h0Z"/>
</svg>